<?xml version="1.0" encoding="utf-8"?><svg viewBox="0 0 40 40" xmlns="http://www.w3.org/2000/svg" xmlns:xlink="http://www.w3.org/1999/xlink"><style>:root>svg{display:none}:root>svg:target{display:block}</style><svg viewBox="0 0 17 9" id="arrow-down" xmlns="http://www.w3.org/2000/svg"><path d="M1 1l7.5 7L16 1"/></svg><svg viewBox="0 0 10 18" id="arrow-left" xmlns="http://www.w3.org/2000/svg"><path d="M9.218 1L1 9l8.218 8"/></svg><svg viewBox="0 0 10 18" id="arrow-right" xmlns="http://www.w3.org/2000/svg"><path d="M.782 17L9 9 .782 1"/></svg><svg viewBox="0 0 20 13" id="arrow-up" xmlns="http://www.w3.org/2000/svg"><path d="M10.399.2l9.434 11.61a.812.812 0 010 .985c-.222.273-.578.273-.8 0L10 1.681.969 12.795c-.222.273-.578.273-.8 0a.79.79 0 01-.168-.49c0-.175.054-.356.168-.49L9.602.205A.492.492 0 0110.4.202z"/></svg><svg viewBox="0 0 40 40" id="faceboock" xmlns="http://www.w3.org/2000/svg"><path d="M40 20C40 8.956 31.044 0 20 0S0 8.956 0 20s8.956 20 20 20c.117 0 .234-.002.352-.005V24.426h-4.297V19.42h4.297v-3.685c0-4.274 2.608-6.6 6.42-6.6 1.826 0 3.396.136 3.853.197v4.466h-2.629c-2.074 0-2.475.986-2.475 2.432v3.19h4.959l-.647 5.007h-4.312v14.801C33.88 36.831 40 29.13 40 20z"/></svg><svg viewBox="0 0 40 40" id="insta" xmlns="http://www.w3.org/2000/svg"><g clip-path="url(#fa)" fill-opacity=".5"><path d="M23.828 20a3.828 3.828 0 11-7.656 0 3.828 3.828 0 017.656 0z"/><path d="M28.953 13.227a3.56 3.56 0 00-.86-1.32 3.557 3.557 0 00-1.32-.86c-.405-.157-1.012-.344-2.132-.395-1.211-.055-1.575-.067-4.641-.067-3.067 0-3.43.012-4.64.067-1.12.051-1.729.238-2.133.395-.499.184-.95.478-1.32.86-.382.37-.676.821-.86 1.32-.157.405-.344 1.013-.395 2.133-.055 1.21-.067 1.574-.067 4.64 0 3.067.012 3.43.067 4.641.05 1.12.238 1.728.395 2.132.184.5.478.95.86 1.32.37.382.82.676 1.32.86.404.157 1.012.345 2.132.395 1.211.056 1.574.067 4.64.067 3.068 0 3.43-.011 4.642-.067 1.12-.05 1.727-.238 2.132-.395a3.802 3.802 0 002.18-2.18c.157-.404.344-1.012.395-2.132.055-1.211.067-1.574.067-4.64 0-3.067-.012-3.43-.067-4.642-.05-1.12-.238-1.727-.395-2.132zM20 25.897a5.897 5.897 0 110-11.794 5.897 5.897 0 010 11.794zm6.13-10.65a1.378 1.378 0 110-2.756 1.378 1.378 0 010 2.757z"/><path d="M20 0C8.956 0 0 8.956 0 20s8.956 20 20 20 20-8.956 20-20S31.044 0 20 0zm11.415 24.735c-.055 1.222-.25 2.057-.534 2.788a5.872 5.872 0 01-3.358 3.358c-.73.284-1.566.478-2.788.534-1.225.056-1.616.07-4.735.07s-3.51-.014-4.735-.07c-1.222-.056-2.057-.25-2.787-.534a5.626 5.626 0 01-2.035-1.324 5.628 5.628 0 01-1.324-2.034c-.284-.73-.478-1.566-.534-2.788-.056-1.225-.07-1.616-.07-4.735s.014-3.51.07-4.735c.055-1.222.25-2.057.533-2.788a5.647 5.647 0 011.325-2.034 5.625 5.625 0 012.034-1.324c.731-.284 1.566-.478 2.788-.534 1.225-.056 1.616-.07 4.735-.07s3.51.014 4.735.07c1.222.056 2.057.25 2.788.533a5.63 5.63 0 012.034 1.325 5.626 5.626 0 011.324 2.034c.285.731.479 1.566.534 2.788.056 1.225.07 1.616.07 4.735s-.014 3.51-.07 4.735z"/></g><defs><clipPath id="fa"><path d="M0 0h40v40H0z"/></clipPath></defs></svg><svg viewBox="0 0 40 40" id="youtube" xmlns="http://www.w3.org/2000/svg"><path d="M17.509 23.494l6.506-3.747L17.509 16v7.494z" fill-opacity=".5"/><path d="M20 0C8.956 0 0 8.956 0 20s8.956 20 20 20 20-8.956 20-20S31.044 0 20 0zm12.497 20.02s0 4.056-.515 6.012a3.132 3.132 0 01-2.203 2.203c-1.956.515-9.779.515-9.779.515s-7.803 0-9.78-.535a3.132 3.132 0 01-2.202-2.203C7.503 24.076 7.503 20 7.503 20s0-4.056.515-6.012a3.195 3.195 0 012.203-2.223C12.177 11.25 20 11.25 20 11.25s7.823 0 9.78.535a3.132 3.132 0 012.202 2.203c.536 1.956.515 6.032.515 6.032z" fill-opacity=".5"/></svg></svg>